<svg width="374" height="338" viewBox="0 0 374 338" fill="none" xmlns="http://www.w3.org/2000/svg">
<g opacity="0.05" clip-path="url(#clip0_19_310)">
<path d="M228 449.32C350.232 449.32 449.32 350.232 449.32 228C449.32 105.768 350.232 6.67969 228 6.67969C105.768 6.67969 6.67969 105.768 6.67969 228C6.67969 350.232 105.768 449.32 228 449.32Z" fill="#87DCFF"/>
<path d="M300.583 376.737C178.351 376.737 79.263 277.649 79.263 155.417C79.263 112.898 91.2766 73.1978 112.059 39.477C48.8392 78.44 6.67969 148.286 6.67969 228C6.67969 350.231 105.768 449.32 228 449.32C307.714 449.32 377.561 407.161 416.524 343.94C382.803 364.723 343.102 376.737 300.583 376.737Z" fill="#00C3FF"/>
<path d="M43.7457 350.601L49.9231 294.481C50.4165 290.076 48.8365 285.692 45.6463 282.615L7.54535 246.985C10.7854 285.096 23.647 320.454 43.7457 350.601Z" fill="#AFD755"/>
<path d="M228 6.67969C227.454 6.67969 226.918 6.71709 226.374 6.72066L214.316 57.8452H167.022C163.442 57.8452 160.418 60.4939 159.946 64.0413L156.012 93.5423L134.104 94.6895C130.421 94.8818 127.491 97.8494 127.345 101.535L126.585 120.575C126.414 124.861 130.037 128.329 134.313 127.973L154.823 126.264L171.778 102.615L221.754 100.83L232.54 117.154C235.952 122.319 242.303 124.696 248.271 123.042L266.674 117.935L271.188 105.958C272.915 101.376 276.869 97.999 281.664 97.0095L290.6 95.1651C296.614 93.9244 302.31 98.366 302.571 104.501C302.793 109.724 298.942 114.231 293.75 114.826L266.674 117.933L266.375 127.155L288.239 138.31L280.654 149.465H213.722L154.823 126.262L102.111 174.981C98.2938 178.509 96.6934 183.833 97.9367 188.88L107.673 228.43C109.176 234.535 114.493 238.938 120.771 239.275L174.716 242.176C185.329 242.746 193.918 251.015 194.895 261.599L199.444 310.994L217.547 358.34C220.618 366.373 228.327 371.678 236.928 371.678C242.094 371.678 247.075 369.751 250.896 366.272L299.082 322.402C302.747 319.066 305.141 314.56 305.857 309.655L310.996 274.405L345.825 236.022C349.644 231.814 347.255 225.048 341.642 224.17L335.125 223.152L336.282 220.86L385.067 188.137L373.763 172.669L393.869 170.256C399.688 169.558 405.341 172.486 408.131 177.641L422.371 203.974L432.309 222.349C434.063 225.593 437.003 228.032 440.516 229.156L449.206 232.567C449.238 231.042 449.321 229.531 449.321 227.999C449.32 105.768 350.232 6.67969 228 6.67969Z" fill="#BEE86E"/>
<path d="M389.221 66.7791C346.157 23.7165 288.901 0 228 0C167.099 0 109.843 23.7165 66.7791 66.7791C23.7165 109.843 0 167.099 0 228C0 288.901 23.7165 346.157 66.7791 389.221C109.843 432.284 167.099 456 228 456C288.901 456 346.157 432.284 389.221 389.221C432.284 346.157 456 288.901 456 228C456 167.099 432.284 109.843 389.221 66.7791ZM43.2862 293.737L39.1937 330.278C27.9202 309.534 20.1825 287.051 16.2886 263.577L41.0097 287.423C42.6948 289.049 43.5462 291.409 43.2862 293.737ZM379.774 379.774C339.234 420.314 285.333 442.641 228 442.641C170.667 442.641 116.766 420.314 76.2259 379.774C66.625 370.173 58.0598 359.815 50.5563 348.848L56.5618 295.224C57.2814 288.804 54.9338 282.292 50.2838 277.808L13.8617 242.675C13.5357 237.811 13.3594 232.92 13.3594 228C13.3594 170.667 35.6856 116.766 76.2259 76.2259C101.546 50.9063 132.077 32.6922 165.401 22.5836L161.067 34.0682C159.764 37.5194 161.506 41.374 164.957 42.6761C165.734 42.9691 166.532 43.108 167.315 43.108C170.013 43.108 172.556 41.4595 173.565 38.7849L181.241 18.4431C192.362 15.9849 203.739 14.4121 215.289 13.7415L205.866 50.461L203.303 51.1637H167.022C160.125 51.1637 154.237 56.3196 153.324 63.1569L150.124 87.1601L133.755 88.0169C126.581 88.3927 120.956 94.0892 120.67 101.267L119.911 120.307C119.753 124.263 121.303 128.1 124.162 130.838C127.021 133.575 130.913 134.958 134.867 134.628L136.034 134.531L122.486 147.052C119.777 149.556 119.61 153.782 122.114 156.492C123.432 157.916 125.224 158.637 127.022 158.637C128.643 158.637 130.269 158.05 131.554 156.863L156.276 134.014L211.273 155.68C212.053 155.988 212.883 156.145 213.721 156.145H280.653C282.95 156.145 284.974 154.986 286.177 153.221L286.185 153.211C286.189 153.204 286.193 153.197 286.198 153.191L293.762 142.066C294.84 140.481 295.185 138.508 294.709 136.651C294.233 134.794 292.983 133.231 291.274 132.36L274.432 123.767L294.51 121.463C303.142 120.472 309.614 112.897 309.244 104.217C309.036 99.3323 306.705 94.8061 302.85 91.7994C298.993 88.7917 294.035 87.6339 289.249 88.6234L280.314 90.467C273.236 91.9276 267.488 96.8368 264.936 103.601L261.618 112.404L246.484 116.603C243.298 117.485 239.934 116.227 238.113 113.47L227.328 97.1467C226.045 95.2043 223.829 94.0598 221.517 94.1533L171.542 95.9381C169.473 96.012 167.557 97.0398 166.351 98.7213L151.193 119.862L133.759 121.315C133.702 121.321 133.554 121.333 133.404 121.189C133.254 121.046 133.26 120.895 133.262 120.838L134.021 101.798C134.031 101.56 134.218 101.37 134.456 101.358L156.363 100.21C159.575 100.042 162.21 97.6098 162.636 94.4223L166.569 64.9212C166.599 64.6932 166.795 64.5213 167.025 64.5213H204.205C204.802 64.5213 205.396 64.4412 205.971 64.2835L242.858 54.1696C244.948 53.5969 246.629 52.0463 247.369 50.0104L252.129 36.9218C253.389 33.4545 251.601 29.6222 248.133 28.362C244.668 27.1026 240.835 28.8901 239.574 32.3564L235.994 42.1996L220.705 46.3918L229.178 13.371C286.071 13.6747 339.513 35.9608 379.777 76.2233C419.09 115.536 441.273 167.413 442.58 222.8L442.554 222.792C440.676 222.19 439.124 220.904 438.186 219.169L428.247 200.793C426.493 197.549 422.44 196.338 419.194 198.095C415.949 199.85 414.742 203.903 416.497 207.149L426.436 225.524C429.023 230.309 433.302 233.858 438.555 235.538L442.454 236.737C440.301 290.793 418.246 341.301 379.774 379.774ZM211.044 135.175C214.32 135.175 217.044 132.818 217.614 129.707C218.106 128.102 220.4 122.168 223.199 115.134L226.965 120.836C231.991 128.441 241.271 131.915 250.055 129.477L259.703 126.8L259.698 126.941C259.615 129.527 261.033 131.93 263.339 133.106L278.456 140.818L277.118 142.787H214.991L165.246 123.19L175.295 109.173L211.701 107.873C204.37 126.137 204.365 127.161 204.365 128.494C204.365 132.184 207.354 135.175 211.044 135.175ZM276.781 110.051L277.435 108.314C278.359 105.861 280.444 104.081 283.011 103.551L291.947 101.708C292.188 101.658 292.416 101.636 292.632 101.636C293.576 101.636 294.269 102.05 294.633 102.335C295.08 102.684 295.839 103.466 295.895 104.786C295.968 106.5 294.69 107.995 292.985 108.19L276.781 110.051Z" fill="black"/>
<path d="M347.419 310.343C344.593 307.969 340.38 308.335 338.007 311.161L319.267 333.471C316.894 336.296 317.261 340.509 320.085 342.882C321.338 343.934 322.861 344.447 324.378 344.447C326.283 344.447 328.176 343.636 329.497 342.063L348.237 319.753C350.61 316.929 350.243 312.715 347.419 310.343Z" fill="black"/>
<path d="M393.072 163.625L360.51 167.475L340.14 149.248C337.176 146.598 332.502 147.076 330.17 150.457C328.241 153.253 328.87 157.091 331.402 159.356L353.839 179.432C355.262 180.705 357.156 181.309 359.058 181.09L370.664 179.751L375.569 186.465L333.064 214.969C331.813 215.807 330.117 215.448 329.315 214.175L301.42 169.915C299.417 166.734 295.174 165.823 292.034 167.935C289.001 169.977 288.317 174.176 290.265 177.27L320.513 225.312C321.541 226.946 323.227 228.054 325.133 228.353L340.607 230.771C340.722 230.789 340.879 230.813 340.97 231.072C341.06 231.331 340.954 231.448 340.877 231.534L306.047 269.918C305.154 270.901 304.576 272.129 304.384 273.443L299.243 308.694C298.752 312.06 297.097 315.174 294.582 317.465L246.396 361.336C243.801 363.7 240.438 365.002 236.925 365.002C231.133 365.002 225.852 361.368 223.785 355.958L206.01 309.47L201.544 260.99C200.274 247.207 188.894 236.253 175.072 235.51L121.127 232.61C117.763 232.429 114.961 230.109 114.156 226.839L104.42 187.289C103.76 184.603 104.61 181.769 106.642 179.892L111.846 175.082C114.532 172.6 114.96 168.365 112.558 165.605C110.072 162.751 105.74 162.532 102.982 165.082L97.5742 170.08C91.9722 175.257 89.6254 183.075 91.4494 190.481L101.185 230.031C103.406 239.054 111.132 245.45 120.411 245.95L174.355 248.85C181.606 249.24 187.575 254.986 188.241 262.215L192.79 311.61C192.846 312.217 192.985 312.813 193.202 313.383L211.305 360.729C215.337 371.276 225.634 378.362 236.925 378.362C243.772 378.362 250.33 375.823 255.389 371.215L303.576 327.345C308.372 322.979 311.528 317.04 312.463 310.623L317.31 277.389L350.771 240.513C354.19 236.745 355.261 231.424 353.567 226.626C352.672 224.093 351.082 221.937 349.045 220.344L388.655 193.776C389.451 193.242 390.166 192.578 390.68 191.769C392.22 189.343 392.04 186.365 390.458 184.2L385.887 177.945L394.663 176.892C397.786 176.517 400.759 178.061 402.252 180.822C403.46 183.057 405.759 184.326 408.133 184.326C409.468 184.326 410.827 183.925 412.028 183.069C414.814 181.084 415.543 177.23 413.88 174.241C409.722 166.764 401.585 162.606 393.072 163.625Z" fill="black"/>
<path d="M336.695 128.219C337.986 130.13 340.091 131.16 342.236 131.16C343.522 131.16 344.823 130.788 345.969 130.013C349.026 127.948 349.829 123.796 347.765 120.739L332.892 98.7267C330.825 95.6701 326.673 94.8667 323.617 96.9312C320.56 98.9965 319.757 103.149 321.821 106.205L336.695 128.219Z" fill="black"/>
</g>
<defs>
<clipPath id="clip0_19_310">
<rect width="456" height="456" fill="white"/>
</clipPath>
</defs>
</svg>
